Coordinates
version=1
nRows=10
nColumns=63
inDegrees=yes

Units are S.I. units (second, meters, Newtons, ...)
If the header above contains a line with 'inDegrees', this indicates whether rotational values are in degrees (yes) or radians (no).

endheader
time	pelvis_tilt	pelvis_list	pelvis_rotation	pelvis_tx	pelvis_ty	pelvis_tz	hip_flexion_r	hip_adduction_r	hip_rotation_r	knee_angle_r	knee_angle_r_beta	ankle_angle_r	subtalar_angle_r	mtp_angle_r	hip_flexion_l	hip_adduction_l	hip_rotation_l	knee_angle_l	knee_angle_l_beta	ankle_angle_l	subtalar_angle_l	mtp_angle_l	L5_S1_Flex_Ext	L5_S1_Lat_Bending	L5_S1_axial_rotation	L4_L5_Flex_Ext	L4_L5_Lat_Bending	L4_L5_axial_rotation	L3_L4_Flex_Ext	L3_L4_Lat_Bending	L3_L4_axial_rotation	L2_L3_Flex_Ext	L2_L3_Lat_Bending	L2_L3_axial_rotation	L1_L2_Flex_Ext	L1_L2_Lat_Bending	L1_L2_axial_rotation	L1_T12_Flex_Ext	L1_T12_Lat_Bending	L1_T12_axial_rotation	Abs_r3	Abs_r2	Abs_r1	Abs_t1	Abs_t2	neck_flexion	neck_bending	neck_rotation	arm_flex_r	arm_add_r	arm_rot_r	elbow_flex_r	pro_sup_r	wrist_flex_r	wrist_dev_r	arm_flex_l	arm_add_l	arm_rot_l	elbow_flex_l	pro_sup_l	wrist_flex_l	wrist_dev_l
      0.00000000	      2.54868243	     -4.25200763	    104.37310917	      0.25452065	      0.71665340	      0.87422491	      0.29183286	      4.73168923	      1.28454413	      2.54392443	      0.04439986	     24.33515666	    -12.66631655	      0.00000000	      8.70342829	     -0.96969271	      8.30336420	     15.96876425	      0.27870751	     35.23789874	     -4.43320876	      0.00000000	      0.09321882	      0.58355608	     -1.22413718	      0.17311667	      0.77612958	     -1.30064575	      0.15314920	      1.41885825	     -1.30064575	      0.10653979	      1.41885825	     -1.07112003	      0.08656300	      1.18998755	     -0.99461146	      0.05326523	      0.90392836	     -0.91810288	      0.66585271	      6.60130306	     -6.80828374	      0.00000000	      0.00000000	     13.26444289	     -4.46404804	      4.75925000	      9.76318622	    -17.55999177	     52.02422349	     54.48090096	     80.62486559	     15.56593934	      0.89656946	     15.76566885	    -18.79085213	     63.20128249	     60.68938086	     53.64004583	      6.44322541	     -1.55893806
      0.01694915	      2.75085581	     -4.36181734	    104.17683090	      0.25530049	      0.71713659	      0.87239780	      0.64596752	      4.98181097	      1.72354666	      2.92215731	      0.05100127	     24.94088404	    -12.68498877	      0.00000000	      8.59798172	     -1.30769257	      7.73525094	     15.88103436	      0.27717634	     34.85866165	     -4.59209274	      0.00000000	      0.08659054	      0.57865163	     -1.18941780	      0.16080730	      0.76960667	     -1.26375641	      0.14225961	      1.40693357	     -1.26375641	      0.09896433	      1.40693357	     -1.04074058	      0.08040798	      1.17998640	     -0.96640196	      0.04947784	      0.89633137	     -0.89206335	      0.61850760	      6.54582296	     -6.61518499	      0.00000000	      0.00000000	     12.87583154	     -3.44705246	      3.75123891	     10.28351939	    -18.25876623	     52.96598782	     55.80262183	     80.69665271	     16.63400439	      1.36640410	     15.33505238	    -19.48215264	     63.37114189	     61.29710519	     53.18776007	      7.28441558	     -1.81326121
      0.03389831	      2.93206071	     -4.41039952	    103.43503631	      0.25656936	      0.71773386	      0.87125786	      1.06576820	      5.19389504	      2.32547085	      3.58596329	      0.06258687	     25.46002022	    -12.36645987	      0.00000000	      8.40949596	     -1.68550265	      6.68479046	     15.77371375	      0.27530324	     34.43168254	     -4.61521690	      0.00000000	      0.08302268	      0.57296410	     -1.07310451	      0.15418142	      0.76204225	     -1.14017354	      0.13639796	      1.39310491	     -1.14017354	      0.09488662	      1.39310491	     -0.93896645	      0.07709486	      1.16838839	     -0.87189742	      0.04743916	      0.88752139	     -0.80482838	      0.59302270	      6.48148446	     -5.96828537	      0.00000000	      0.00000000	     12.28857385	     -2.15294454	      2.48185895	     11.12530898	    -18.58521561	     54.30836793	     56.32460499	     80.44389798	     17.87695698	      2.62228717	     15.08245260	    -19.85704132	     63.54343597	     61.29994519	     52.09374294	      8.80247673	     -2.07832159
      0.05084746	      2.93889467	     -4.32424644	    102.63061388	      0.25779661	      0.71832288	      0.87020767	      1.29269435	      5.20314477	      1.41775721	      4.29641217	      0.07498654	     26.27010774	    -10.08026921	      0.00000000	      8.04835597	     -2.04537019	      4.50351959	     15.66954736	      0.27348519	     34.46339841	     -2.93934517	      0.00000000	      0.07049344	      0.57185829	     -0.91799877	      0.13091338	      0.76057153	     -0.97537369	      0.11581368	      1.39041625	     -0.97537369	      0.08056696	      1.39041625	     -0.80324892	      0.06546021	      1.16613343	     -0.74587400	      0.04027995	      0.88580849	     -0.68849908	      0.50352763	      6.46897535	     -5.10563376	      0.00000000	      0.00000000	     11.75689005	     -1.82972943	      2.41474610	     11.23774215	    -18.84579570	     54.86387966	     56.77300167	     76.69724186	     18.36843738	      4.51149991	     15.31317591	    -20.02744220	     64.49174134	     60.81561603	     49.11685069	     11.64542862	     -2.41121208
      0.06779661	      3.01553103	     -4.21711465	    102.21694973	      0.25818043	      0.71860437	      0.86931787	      1.43182255	      5.27852197	      0.82455319	      4.87129169	      0.08502008	     26.62723567	     -8.95278762	      0.00000000	      7.71533159	     -2.25041901	      3.91112524	     15.54008370	      0.27122563	     34.33246720	     -2.64528797	      0.00000000	      0.07263104	      0.58708939	     -0.86673310	      0.13488310	      0.78082889	     -0.92090391	      0.11932553	      1.42744915	     -0.92090391	      0.08301001	      1.42744915	     -0.75839146	      0.06744518	      1.19719269	     -0.70422064	      0.04150137	      0.90940147	     -0.65004982	      0.51879623	      6.64127261	     -4.82050946	      0.00000000	      0.00000000	     11.24053220	     -1.48947773	      3.01703766	     11.37645190	    -19.05300934	     55.44085710	     57.04698410	     75.55946523	     18.59322991	      5.38724001	     15.31673490	    -20.27063882	     65.04240224	     60.99129785	     49.28060868	     11.68473207	     -2.76249757
      0.08474576	      3.11364993	     -4.08448613	    101.88198676	      0.25819154	      0.71876992	      0.86861680	      1.50831652	      5.36337355	      0.33023268	      5.37959491	      0.09389164	     26.74710017	     -8.19839652	      0.00000000	      7.38392168	     -2.37977607	      3.96095874	     15.41605994	      0.26906100	     34.15086463	     -3.01198509	      0.00000000	      0.08079634	      0.61292491	     -0.81597051	      0.15004689	      0.81519013	     -0.86696866	      0.13274031	      1.49026563	     -0.86696866	      0.09234214	      1.49026563	     -0.71397419	      0.07502748	      1.24987648	     -0.66297604	      0.04616703	      0.94942069	     -0.61197788	      0.57712019	      6.93352918	     -4.53818317	      0.00000000	      0.00000000	     10.75428894	     -1.33019435	      3.84262352	     11.23610594	    -19.21810660	     55.40521585	     57.17541087	     75.51417889	     18.95560687	      5.77744150	     15.35150561	    -20.25888199	     65.37714848	     60.87719435	     51.15018985	     11.90880573	     -3.46852583
      0.10169492	      3.10586759	     -4.06468756	    101.77095823	      0.25821615	      0.71861030	      0.86881093	      1.70331405	      5.32471737	      0.06252123	      5.84546260	      0.10202257	     26.84166201	     -7.98338534	      0.00000000	      7.37833820	     -2.38755981	      3.84647600	     15.59338552	      0.27215592	     34.15213284	     -2.91376089	      0.00000000	      0.09064382	      0.61493423	     -0.80084705	      0.16833464	      0.81786253	     -0.85089999	      0.14891873	      1.49515109	     -0.85089999	      0.10359682	      1.49515109	     -0.70074117	      0.08417185	      1.25397389	     -0.65068823	      0.05179388	      0.95253312	     -0.60063529	      0.64745974	      6.95625902	     -4.45407105	      0.00000000	      0.00000000	     10.53754967	     -1.34085825	      3.83618994	     11.18779960	    -19.24356534	     55.44030381	     57.16683616	     75.13884724	     18.82040532	      5.78729055	     15.29403036	    -20.29630198	     65.46407703	     60.96526812	     51.13052402	     11.84424759	     -3.27117088
      0.11864407	      3.14875966	     -3.73480765	    101.55177254	      0.25843493	      0.71887751	      0.86792987	      1.48153787	      5.43415955	     -0.15225202	      6.19906375	      0.10819407	     26.84412021	     -7.80682782	      0.00000000	      6.70438133	     -2.53788334	      3.87440061	     15.12630766	      0.26400387	     34.09831048	     -2.84966439	      0.00000000	      0.07967353	      0.63500546	     -0.74442628	      0.14796171	      0.84455726	     -0.79095293	      0.13089564	      1.54395227	     -0.79095293	      0.09105888	      1.54395227	     -0.65137300	      0.07398484	      1.29490313	     -0.60484636	      0.04552546	      0.98362345	     -0.55831971	      0.56910006	      7.18330873	     -4.14027567	      0.00000000	      0.00000000	      9.82863261	     -1.62090507	      4.26899248	     10.92941732	    -19.31407024	     55.21918617	     57.05859535	     74.65038680	     18.81391169	      5.64027286	     15.59158205	    -20.31493965	     66.21870181	     61.07121958	     51.88749650	     11.86068905	     -2.72912629
      0.13559322	      3.07113050	     -3.60128754	    101.19096998	      0.25859021	      0.71893711	      0.86799045	      1.48544082	      5.28176196	     -1.23905734	      6.55244463	      0.11436173	     27.36098568	     -5.89527723	      0.00000000	      6.37386231	     -2.45971850	      3.93649292	     14.93581540	      0.26067916	     33.96333913	     -3.31131945	      0.00000000	      0.06675681	      0.63405194	     -0.55918616	      0.12397408	      0.84328907	     -0.59413530	      0.10967477	      1.54163388	     -0.59413530	      0.07629636	      1.54163388	     -0.48928789	      0.06199038	      1.29295871	     -0.45433876	      0.03814484	      0.98214645	     -0.41938962	      0.47683724	      7.17252231	     -3.11002567	      0.00000000	      0.00000000	      9.92973684	     -1.88698775	      3.54433543	     10.28677576	    -19.56715916	     54.06982192	     57.33801181	     71.57428993	     18.58743359	      6.84457890	     16.30132534	    -19.79619813	     66.48383533	     60.39155659	     58.95556365	     12.56545478	     -3.15974255
      0.15254237	      2.97127324	     -3.43806662	    101.09466494	      0.25876324	      0.71893771	      0.86811870	      1.43525652	      5.18469560	     -1.60977010	      6.85649829	      0.11966847	     27.66195649	     -5.43049752	      0.00000000	      6.10236283	     -2.42593210	      3.66472791	     14.83319567	      0.25888810	     34.12796578	     -2.90817164	      0.00000000	      0.04525453	      0.62582735	     -0.49635543	      0.08404218	      0.83235037	     -0.52737764	      0.07434866	      1.52163662	     -0.52737764	      0.05172140	      1.52163662	     -0.43431100	      0.04202335	      1.27618713	     -0.40328879	      0.02585844	      0.96940656	     -0.37226657	      0.32324856	      7.07948414	     -2.76057999	      0.00000000	      0.00000000	     10.10038467	     -2.09159669	      3.17899562	     10.25016786	    -19.70047297	     53.84036176	     57.36061440	     70.30859461	     17.94876065	      6.80372462	     16.47037235	    -19.64069179	     66.64888386	     60.37141654	     58.54947913	     12.02771091	     -2.68357877
